<?xml version="1.0" standalone="no"?>
<!DOCTYPE svg PUBLIC "-//W3C//DTD SVG 20010904//EN"
 "http://www.w3.org/TR/2001/REC-SVG-20010904/DTD/svg10.dtd">
<svg version="1.0" xmlns="http://www.w3.org/2000/svg"
 width="890.000000pt" height="822.000000pt" viewBox="0 0 890.000000 822.000000"
 preserveAspectRatio="xMidYMid meet">
<metadata>
Created by potrace 1.16, written by Peter Selinger 2001-2019
</metadata>
<g transform="translate(0.000000,822.000000) scale(0.100000,-0.100000)"
fill="#000000" stroke="none">
<path d="M4314 7985 c-73 -16 -185 -70 -243 -119 -171 -143 -255 -379 -206
-581 19 -79 19 -85 -5 -85 -11 0 -20 -5 -20 -11 0 -7 10 -9 25 -7 22 5 28 -1
44 -36 66 -147 225 -279 388 -321 74 -19 233 -19 307 0 145 38 295 155 369
288 31 55 40 64 59 59 14 -3 19 -2 14 6 -4 7 -14 12 -22 12 -18 0 -18 10 0 36
24 34 31 205 12 294 -70 331 -390 537 -722 465z m299 -220 c76 -38 158 -126
188 -202 32 -80 32 -196 0 -276 -30 -76 -112 -164 -188 -202 -53 -28 -67 -30
-163 -30 -96 0 -110 2 -163 30 -76 38 -158 126 -188 202 -32 80 -32 196 0 275
39 99 142 193 251 229 14 5 66 7 115 6 76 -3 99 -8 148 -32z"/>
<path d="M4318 7588 c-38 -10 -38 -10 -54 -100 l-6 -38 86 0 86 0 0 75 0 75
-37 -1 c-21 -1 -55 -5 -75 -11z"/>
<path d="M4470 7525 l0 -75 86 0 86 0 -6 38 c-16 92 -15 89 -61 101 -24 6 -58
11 -74 11 l-31 0 0 -75z"/>
<path d="M4341 7403 l-83 -4 6 -37 c17 -94 14 -90 67 -101 100 -22 99 -22 99
69 0 44 -1 79 -2 78 -2 -1 -41 -4 -87 -5z"/>
<path d="M4470 7324 l0 -77 61 7 c93 11 87 4 105 109 l6 37 -86 0 -86 0 0 -76z"/>
<path d="M2845 5808 c-11 -6 -26 -18 -33 -26 -9 -12 -15 -13 -24 -4 -22 22
-87 15 -111 -12 -15 -16 -36 -26 -62 -28 -39 -3 -40 -4 -43 -44 -3 -37 -7 -42
-34 -50 -17 -5 -40 -21 -51 -36 l-21 -28 22 -23 21 -22 -40 3 c-48 5 -65 -8
-80 -59 -10 -32 -9 -42 5 -64 16 -25 16 -25 -13 -25 -16 0 -37 -7 -46 -17 -35
-35 -46 -101 -20 -123 20 -17 19 -27 -4 -33 -45 -11 -46 -136 -2 -180 l20 -21
-22 -10 c-11 -6 -27 -28 -35 -48 -12 -30 -12 -41 0 -65 7 -15 23 -32 36 -38
27 -12 28 -22 2 -30 -21 -7 -43 -42 -54 -87 -8 -34 15 -92 42 -109 16 -10 17
-17 9 -39 -15 -38 -1 -96 29 -119 24 -19 25 -21 10 -43 -9 -12 -16 -40 -16
-61 0 -46 35 -87 77 -87 15 0 37 -7 47 -15 29 -22 86 -18 125 8 19 12 48 30
65 40 17 11 35 25 41 32 8 11 26 4 93 -35 l83 -50 78 50 c43 28 81 50 84 50 4
0 7 -8 7 -19 0 -44 22 -82 51 -88 22 -4 29 -11 29 -28 0 -29 30 -55 63 -55 15
0 36 -9 46 -19 24 -24 130 -48 141 -32 5 8 15 7 36 -4 16 -8 45 -15 64 -15 29
0 37 5 48 30 10 22 22 31 48 36 19 3 34 11 34 16 0 5 9 23 21 39 14 20 17 34
11 45 -6 12 -3 23 15 40 12 13 23 34 23 47 0 35 -19 85 -35 91 -11 4 -13 20
-8 71 7 74 -3 93 -60 116 -18 7 -34 14 -36 15 -2 2 8 17 22 33 33 40 42 93 23
133 -15 29 -15 31 14 58 23 22 30 37 30 67 0 21 -4 44 -9 52 -5 8 -3 24 7 41
22 39 2 133 -34 157 -19 12 -24 22 -20 39 8 29 -22 104 -40 104 -9 0 -14 12
-14 33 0 35 -21 62 -53 68 -15 3 -20 15 -22 54 -2 40 -9 54 -33 76 -16 15 -34
28 -39 30 -5 2 -18 22 -29 44 -15 28 -30 43 -52 50 -18 5 -32 13 -32 17 0 16
-41 48 -62 48 -12 0 -32 12 -44 28 -20 25 -28 27 -93 28 -39 1 -74 4 -78 8
-10 10 -96 6 -118 -6z"/>
<path d="M6037 5575 c-37 -14 -160 -95 -154 -102 2 -1 30 2 63 8 119 23 277
-5 374 -66 19 -12 52 -41 73 -64 47 -52 48 -32 1 45 -45 75 -113 145 -168 173
-50 25 -130 27 -189 6z"/>
<path d="M4528 5452 c2 -28 2 -62 -2 -75 l-6 -24 -117 4 c-104 5 -125 2 -175
-16 -66 -26 -145 -92 -194 -165 -34 -51 -38 -71 -7 -44 10 9 29 19 43 23 l25
7 -28 -29 c-15 -17 -37 -53 -47 -82 -21 -53 -27 -106 -11 -97 5 3 12 -61 16
-144 4 -83 10 -150 14 -150 4 0 18 10 30 22 29 26 46 18 76 -37 26 -46 57 -64
112 -65 57 0 109 44 124 106 10 37 15 44 35 44 19 0 24 -5 24 -27 0 -99 134
-160 209 -97 17 14 31 32 31 39 0 8 12 23 27 35 l26 21 29 -28 c15 -14 30 -25
32 -22 2 2 6 45 10 94 5 75 12 101 40 157 27 54 30 66 16 58 -10 -6 -23 -10
-29 -10 -17 0 -12 59 8 118 10 28 16 52 14 52 -3 0 -17 -9 -31 -21 -27 -21
-27 -21 -30 -1 -4 26 21 75 67 131 34 42 34 43 11 36 -41 -12 -103 -46 -127
-67 l-21 -20 -7 45 c-12 76 9 137 72 215 37 45 33 49 -32 31 -54 -15 -101 -52
-136 -107 -22 -35 -29 -41 -29 -24 0 26 -35 121 -54 147 -12 16 -13 13 -8 -33z
m126 -470 c56 -39 89 -104 82 -162 -4 -24 -10 -47 -14 -51 -4 -4 -34 0 -67 8
-49 13 -70 14 -125 4 -84 -16 -152 -16 -219 0 -42 10 -67 10 -111 1 -81 -17
-97 -15 -104 11 -19 70 4 141 59 183 51 39 141 45 210 15 38 -17 51 -19 68 -9
82 44 159 44 221 0z m-314 -225 c21 -11 25 -20 23 -51 -5 -76 -81 -132 -145
-107 -33 13 -68 65 -68 104 0 47 31 67 103 67 34 0 73 -6 87 -13z m312 -4 c41
-37 12 -133 -46 -153 -46 -15 -80 -4 -116 37 -40 45 -39 100 0 120 37 19 139
17 162 -4z"/>
<path d="M6445 4868 c-3 -7 -6 -22 -8 -33 -10 -55 -24 -85 -68 -145 -51 -70
-81 -100 -158 -155 l-50 -36 3 -72 c4 -105 15 -121 89 -136 34 -6 92 -15 128
-19 l66 -8 13 69 c7 38 16 106 20 150 9 92 11 364 3 384 -7 17 -32 17 -38 1z"/>
<path d="M1240 4715 c0 -12 -16 -15 -82 -15 -104 0 -189 -20 -276 -64 -172
-87 -300 -246 -348 -436 -25 -97 -16 -282 18 -372 37 -99 84 -173 159 -247
117 -118 249 -178 414 -190 90 -6 90 -6 95 -35 3 -16 10 -31 17 -33 8 -3 10 6
7 29 l-6 33 78 18 c193 43 359 170 441 337 56 113 73 187 73 309 0 185 -60
329 -190 460 -85 86 -197 150 -312 178 -43 10 -68 21 -68 29 0 8 -4 14 -10 14
-5 0 -10 -7 -10 -15z m260 -685 l0 -380 -305 0 -305 0 0 380 0 380 305 0 305
0 0 -380z"/>
<path d="M930 4035 l0 -335 260 0 260 0 0 90 c0 83 -1 90 -20 90 -11 0 -20 7
-20 15 0 8 9 15 20 15 19 0 20 7 20 230 l0 230 -260 0 -260 0 0 -335z m470
235 c0 -19 -7 -20 -210 -20 -203 0 -210 1 -210 20 0 19 7 20 210 20 203 0 210
-1 210 -20z m0 -85 l0 -25 -210 0 c-197 0 -210 1 -210 18 0 10 3 22 7 25 3 4
98 7 210 7 l203 0 0 -25z m0 -85 c0 -19 -7 -20 -210 -20 -203 0 -210 1 -210
20 0 19 7 20 210 20 203 0 210 -1 210 -20z m40 -81 c0 -12 -7 -19 -20 -19 -17
0 -20 -7 -20 -40 l0 -40 -210 0 c-203 0 -210 1 -210 20 0 19 7 20 190 20 183
0 190 1 190 20 0 19 -7 20 -190 20 -184 0 -190 1 -190 20 0 20 5 21 230 20
220 -1 230 -2 230 -21z m-40 -159 c0 -19 -7 -20 -210 -20 -203 0 -210 1 -210
20 0 19 7 20 210 20 203 0 210 -1 210 -20z m0 -85 l0 -25 -207 2 c-207 3 -208
3 -211 26 l-3 22 210 0 211 0 0 -25z"/>
<path d="M7520 4681 c-398 -108 -601 -530 -435 -905 35 -79 64 -120 143 -199
152 -155 399 -222 610 -168 225 59 391 214 468 436 24 68 28 97 28 190 1 132
-13 193 -67 305 -55 111 -168 229 -274 283 -144 75 -329 97 -473 58z m433
-344 c16 -11 17 -30 15 -172 l-3 -160 -282 -3 -283 -2 0 -25 c0 -16 -6 -25
-15 -25 -10 0 -15 11 -15 35 0 31 3 36 30 42 l30 6 0 148 c0 130 2 149 18 158
26 16 484 14 505 -2z m40 -437 c41 -78 47 -107 25 -121 -22 -14 -622 -11 -636
3 -18 18 -15 36 18 103 16 33 31 68 34 78 5 16 24 17 262 15 l257 -3 40 -75z"/>
<path d="M7655 4310 l-180 -5 0 -140 0 -140 214 -3 c151 -2 218 1 228 9 11 9
13 40 11 143 l-3 131 -45 5 c-25 3 -126 3 -225 0z"/>
<path d="M4047 4039 c-84 -12 -151 -53 -215 -129 -75 -90 -162 -225 -223 -342
-28 -55 -52 -98 -54 -96 -2 2 -11 67 -20 143 -9 77 -18 155 -21 173 l-6 32
-69 0 c-58 0 -72 -3 -94 -25 l-27 -24 32 -178 c28 -161 47 -222 68 -223 4 -1
17 -9 30 -20 l23 -19 -37 -67 c-50 -89 -53 -148 -10 -193 21 -21 39 -31 60
-31 17 0 107 -9 201 -19 93 -11 172 -18 174 -16 2 2 -9 118 -24 257 -33 310
-33 312 -10 338 17 19 29 20 287 20 147 0 268 2 268 4 0 2 -23 49 -50 105 -35
71 -54 100 -63 95 -6 -4 -26 -18 -43 -31 -17 -13 -33 -23 -36 -23 -3 0 -8 24
-12 53 -19 146 -39 227 -55 226 -9 -1 -42 -5 -74 -10z"/>
<path d="M4680 3913 c-13 -76 -24 -140 -26 -141 -1 -2 -27 15 -58 37 l-56 41
-55 -110 c-30 -60 -55 -112 -55 -115 0 -3 114 -5 253 -5 301 0 297 1 296 -88
0 -31 -13 -169 -28 -307 -16 -137 -27 -252 -25 -255 1 -4 92 4 201 17 109 12
215 22 235 23 69 0 119 67 103 139 -3 16 -36 80 -72 143 -36 62 -94 165 -129
229 -107 198 -286 435 -366 485 -22 14 -65 30 -96 35 -105 17 -96 27 -122
-128z"/>
<path d="M2207 3823 c-3 -16 -13 -100 -22 -188 l-16 -160 40 -369 c29 -275 37
-376 29 -397 -5 -16 -8 -89 -6 -164 3 -122 5 -137 24 -156 18 -18 27 -20 50
-12 31 11 31 9 16 102 -10 60 -3 112 16 119 6 2 12 -1 12 -6 0 -6 9 -32 20
-58 29 -67 46 -46 25 31 -8 33 -15 75 -15 95 -1 19 -7 53 -16 75 -11 32 -14
107 -14 385 0 341 0 347 30 510 16 90 30 177 30 192 l0 28 -99 0 -98 0 -6 -27z"/>
<path d="M2465 3124 c-8 -20 -13 -51 -11 -70 3 -19 1 -36 -4 -39 -5 -3 -7 7
-4 22 7 45 -12 5 -26 -55 -14 -59 -7 -346 16 -724 l6 -98 96 -95 c52 -52 99
-95 104 -95 5 0 8 197 8 438 0 240 0 467 0 505 l0 67 325 0 c374 0 348 -10
287 105 l-37 70 -372 3 -373 2 -15 -36z"/>
<path d="M5720 3027 c3 -3 24 -7 48 -11 50 -6 65 -14 57 -27 -4 -5 62 -9 164
-9 l171 0 2 -442 3 -443 113 0 c130 0 123 11 77 -110 -39 -100 -46 -257 -17
-371 43 -169 137 -307 273 -400 89 -60 162 -90 277 -112 196 -38 424 34 577
183 368 357 221 972 -270 1131 -101 33 -263 38 -365 11 -74 -20 -249 -104
-251 -121 -1 -6 -5 3 -9 19 l-8 30 -1 -30 c-1 -22 -13 -42 -42 -70 l-42 -40 7
35 c22 110 27 157 31 270 2 74 -2 166 -10 225 -16 113 -50 254 -66 270 -6 6
-138 11 -367 13 -196 2 -355 1 -352 -1z m1540 -1027 c0 -11 7 -20 15 -20 8 0
15 -4 15 -10 0 -5 7 -10 15 -10 8 0 15 -4 15 -10 0 -5 14 -10 30 -10 17 0 30
-5 30 -12 0 -7 -30 -95 -66 -195 l-67 -181 -86 -16 c-47 -8 -174 -31 -281 -51
-108 -19 -199 -35 -203 -35 -11 0 -8 439 3 461 6 10 20 19 31 19 14 0 19 5 16
14 -8 20 11 32 58 39 22 4 55 9 73 13 28 6 32 4 32 -14 0 -24 -9 -24 185 13
159 30 185 31 185 5z"/>
<path d="M7175 1870 c-82 -15 -193 -35 -247 -45 l-96 -17 -56 -151 c-31 -83
-54 -152 -52 -155 6 -5 479 80 489 89 9 7 120 300 115 304 -2 1 -70 -10 -153
-25z"/>
<path d="M2890 2503 c0 -120 9 -339 20 -488 11 -148 20 -271 20 -272 0 -5 183
-114 237 -141 l60 -31 7 165 c4 91 9 173 11 183 2 9 6 98 10 196 4 99 9 196
11 215 19 185 34 347 34 367 l0 23 -205 0 -205 0 0 -217z"/>
<path d="M3878 2698 c-7 -13 -22 -43 -34 -68 -12 -25 -38 -70 -59 -100 l-37
-55 5 -100 c6 -103 65 -419 118 -630 38 -148 108 -394 120 -416 13 -24 171
-43 207 -25 15 8 54 22 87 32 33 10 63 21 68 24 12 10 -69 507 -108 663 l-7
27 76 0 76 0 0 -60 c0 -47 -3 -60 -15 -60 -13 0 -15 -31 -15 -215 0 -181 2
-215 15 -215 11 0 15 -16 17 -67 3 -66 4 -68 31 -71 l27 -3 0 70 c0 56 3 71
15 71 13 0 15 31 15 215 0 184 -2 215 -15 215 -12 0 -15 13 -15 60 l0 60 81 0
80 0 -5 -42 c-4 -24 -13 -90 -21 -148 -19 -138 -45 -403 -45 -461 0 -46 1 -47
38 -54 20 -4 64 -17 97 -31 55 -21 66 -23 125 -13 36 5 68 13 72 17 3 4 20 66
38 137 17 72 46 182 65 245 18 63 45 171 59 240 14 69 41 195 61 280 40 176
55 344 36 403 -7 20 -25 50 -41 67 l-28 30 -586 0 -585 0 -13 -22z m670 -409
l103 -12 -7 -31 c-3 -17 -8 -33 -10 -35 -6 -6 -422 -7 -427 -1 -2 3 -7 20 -10
38 -6 32 -6 32 36 32 23 1 71 7 107 14 36 8 74 12 85 10 11 -2 66 -9 123 -15z"/>
<path d="M5604 2695 c-18 -71 26 -433 69 -562 l12 -38 105 -1 c58 0 111 2 118
4 9 3 12 68 12 278 0 267 -1 275 -22 309 -22 33 -26 35 -81 35 -56 0 -57 -1
-46 -21 15 -29 -7 -53 -25 -26 -6 10 -17 26 -24 35 -11 15 -11 13 -6 -10 8
-37 -22 -39 -38 -3 -12 27 -24 32 -31 13 -3 -10 -7 -10 -20 0 -14 12 -17 10
-23 -13z"/>
<path d="M1550 2442 c0 -4 6 -17 14 -28 13 -19 11 -22 -42 -49 -108 -57 -246
-210 -296 -329 -55 -131 -66 -324 -26 -451 38 -120 87 -203 175 -291 209 -210
512 -261 780 -129 97 47 189 123 193 158 2 19 12 31 29 38 15 5 32 17 39 27
10 14 14 14 28 3 9 -8 20 -11 24 -7 4 4 -1 14 -12 21 -17 13 -17 16 9 70 181
383 -19 825 -431 952 -44 13 -91 18 -184 18 -117 0 -163 -8 -242 -40 -13 -5
-21 0 -29 19 -11 24 -29 36 -29 18z m384 -286 c38 -16 75 -59 83 -96 4 -24 9
-26 53 -26 34 1 57 -5 77 -20 65 -48 98 -137 70 -193 l-15 -29 33 5 c46 7 91
-22 116 -75 34 -70 12 -134 -58 -167 -35 -17 -72 -19 -413 -21 -343 -1 -379 0
-418 17 -45 19 -72 62 -72 115 0 41 56 91 112 99 l45 7 -23 25 c-76 82 -7 205
115 205 49 0 49 0 55 38 7 45 48 97 91 116 39 17 107 17 149 0z"/>
</g>
</svg>
